<?xml version="1.0" encoding="UTF-8"?>
<svg width="475px" height="148px" viewBox="0 0 475 148" version="1.1" xmlns="http://www.w3.org/2000/svg" xmlns:xlink="http://www.w3.org/1999/xlink">
    <!-- Generator: Sketch 60.1 (88133) - https://sketch.com -->
    <title>Muter Logo</title>
    <desc>Created with Sketch.</desc>
    <g id="Muter-Logo" stroke="none" stroke-width="1" fill="none" fill-rule="evenodd">
        <g id="Wordmark" transform="translate(12.000000, 71.000000)" fill="#E22807" fill-rule="nonzero">
            <path d="M7.91,0.15 C10.62,0.22 12.62,0.9 13.91,2.21 C15.2,3.52 21.27,9.58 32.13,20.41 C42.8566667,9.66333333 48.8933333,3.62333333 50.24,2.29 C51.58,0.89 53.57,0.2 56.24,0.2 C61.5733333,0.2 64.24,2.86666667 64.24,8.2 L64.24,56.46 C64.24,61.8266667 61.5266667,64.5433333 56.1,64.61 C50.8,64.57 48.1033333,61.8533333 48.01,56.46 L48.01,28.06 L38,38.29 C36.67,39.65 34.69,40.29 32,40.29 C29.8472602,40.4451616 27.7231587,39.7239047 26.11,38.29 C24.73,36.8966667 21.36,33.52 16,28.16 L16,56.41 C16,61.7433333 13.3333333,64.41 8,64.41 C2.66666667,64.41 0,61.7433333 0,56.41 L0,8.14 C0,2.80666667 2.66666667,0.14 8,0.14 L7.91,0.15 Z" id="M"></path>
            <path d="M79.75,0.05 C85.0833333,0.05 87.78,2.64666667 87.84,7.84 L87.84,32.32 C87.9066667,43.0533333 91.98,48.4333333 100.06,48.46 C108.14,48.4866667 112.14,43.09 112.06,32.27 L112.06,8.09 C112.126667,2.75666667 114.826667,0.06 120.16,0 C125.48,0.13 128.16,2.85 128.16,8.14 L128.16,32.29 C128.16,53.71 118.776667,64.42 100.01,64.42 C81.17,64.5733333 71.7233333,53.8633333 71.67,32.29 L71.67,8.09 C71.71,2.79666667 74.3766667,0.13 79.67,0.09 L79.75,0.05 Z" id="U"></path>
            <path d="M142.54,0.05 L183.26,0.15 C188.253333,0.216666667 190.766667,2.81333333 190.8,7.94 C190.8,13.4 188.083333,16.1833333 182.65,16.29 L170.67,16.29 L170.72,56.45 C170.646667,61.7233333 167.95,64.39 162.63,64.45 C157.31,64.51 154.626667,61.91 154.58,56.65 L154.63,16.29 L142.54,16.29 C137.166667,16.29 134.483333,13.59 134.489988,8.19 C134.496667,2.79 137.18,0.0766666667 142.54,0.05 Z" id="T"></path>
            <path d="M205.38,0.05 L246.1,0.15 C251.093333,0.216666667 253.606667,2.81333333 253.64,7.94 C253.64,13.4 250.923333,16.1833333 245.49,16.29 L213.49,16.29 L213.49,48.29 L245.49,48.29 C250.89,48.29 253.59,51.0033333 253.59,56.43 C253.59,61.7033333 250.94,64.37 245.64,64.43 L205.38,64.43 C200.046667,64.43 197.363333,61.83 197.33,56.63 L197.33,8.19 C197.37,2.85666667 200.053333,0.143333333 205.38,0.05 Z M217.38,32.47 C217.42,27.1366667 220.066667,24.4233333 225.32,24.33 L241.47,24.33 C246.803333,24.33 249.52,26.9966667 249.62,32.33 C249.52,37.6966667 246.803333,40.3633333 241.47,40.33 L225.34,40.33 C220.006667,40.33 217.34,37.68 217.34,32.38 L217.38,32.47 Z" id="E"></path>
            <path d="M297.07,0.15 C302.35223,0.173088734 307.391363,2.37250931 311,6.23 C314.84697,9.83913088 317.020395,14.8850982 317,20.16 C317.168572,25.0250189 316.138329,29.8568577 314,34.23 C312,38.05 308.96,40.03 304.88,40.17 L314.78,50.22 C316.418313,51.86885 317.292184,54.1278599 317.19,56.45 C317.09,61.7833333 314.423333,64.45 309.19,64.45 L308.99,64.45 C306.323333,64.45 303.693333,63.1433333 301.1,60.53 L285.01,40.53 C282.29,37.65 280.916667,34.8833333 280.89,32.23 C280.89,26.8033333 283.603333,24.1066667 289.03,24.14 L294.71,24.14 C298.97,24.2066667 301.063333,22.9166667 300.99,20.27 C300.916667,17.6233333 298.81,16.2966667 294.67,16.29 L276.91,16.29 L276.91,56.4 C276.95,61.7666667 274.253333,64.4333333 268.82,64.4 C263.386667,64.3666667 260.72,61.7166667 260.82,56.45 L260.82,8.09 C260.82,2.83 263.486667,0.183333333 268.82,0.15 L297.07,0.15 Z" id="R"></path>
        </g>
        <polygon id="Underline" fill="#1E2434" fill-rule="nonzero" points="0 141.356858 0 147.869938 475 148 475 141.496924"></polygon>
        <g id="Rocks" transform="translate(342.017792, 103.518962)" fill-rule="nonzero">
            <path d="M123.964415,37.9779625 L123.66467,36.917461 C122.312581,32.1742846 118.084648,28.8269309 113.163615,28.6035287 L108.487597,28.3934293 C107.245267,28.3344804 106.069569,27.8136336 105.190406,26.9327385 L103.022252,24.7517069 C101.266471,23.0103766 99.0019991,21.8748877 96.5577584,21.5101737 L95.1289753,8.73413101 C94.8608314,5.95352653 92.5234003,3.83404746 89.7335708,3.84181708 L83.0092981,3.84181708 C81.5053145,3.82978907 80.0616616,4.43331297 79.0127021,5.51260731 L78.3432723,6.19292909 L51.3162921,-5.68434189e-14 L45.990828,17.2581626 L35.2299934,11.8756168 L20.5724777,11.8756168 L13.0388943,26.4825255 C12.7791156,26.5525586 12.5193368,26.6426012 12.2595581,26.7326438 L6.26466417,28.963699 C3.84463782,29.8530277 1.96863602,31.8090173 1.17899581,34.266207 L5.68434189e-14,37.88792 L123.964415,37.9779625 Z" id="Path-Copy" fill="#1E2434"></path>
            <path d="M88.7444133,10.2948692 L90.0333155,21.8703441 L83.1391874,22.7907794 C81.4176706,23.0215082 79.7709618,23.6406976 78.3232893,24.6016359 L78.3232893,15.3572636 L83.3190343,10.2848645 L88.7444133,10.2948692 Z" id="Path-Copy-2" fill-opacity="0.364291958" fill="#FFFFFF"></path>
            <path d="M46.5403599,37.8979247 L27.6264696,37.8979247 L26.2976014,33.7959846 C25.6508515,31.7957277 24.2829527,30.1085567 22.4608693,29.0637464 L19.823116,27.5530318 L24.5490907,18.3786926 L33.7112869,18.3786926 L40.7952533,21.9303725 L46.5403599,37.8979247 Z" id="Path-Copy-3" fill-opacity="0.66" fill="#FFFFFF"></path>
            <path d="M117.150219,37.9679578 L76.7346424,37.9679578 L80.3315788,31.7250051 C81.1084106,30.38925 82.4583099,29.4881244 83.9884641,29.2838505 L94.1797838,27.883188 C95.7166438,27.6823953 97.2595345,28.2072298 98.3562266,29.3038599 L100.534371,31.4848915 C102.560485,33.5158223 105.273737,34.7118064 108.137895,34.8364767 L112.813912,35.0565808 C114.694725,35.1296949 116.374855,36.2551335 117.160211,37.9679578 L117.150219,37.9679578 Z" id="Path-Copy-4" fill-opacity="0.66" fill="#FFFFFF"></path>
            <path d="M20.7922905,37.8779152 L6.80420462,37.8779152 L7.33375359,36.2671534 C7.51397643,35.7011838 7.94556933,35.2505503 8.5027579,35.0465761 L14.4976518,32.8255256 C15.0371984,32.6315158 15.6339729,32.6788838 16.1362562,32.9555871 L19.2436095,34.7064152 C19.6565449,34.949432 19.9685715,35.3328814 20.1228607,35.7869262 L20.7922905,37.8779152 Z" id="Path-Copy-5" fill-opacity="0.885407561" fill="#FFFFFF"></path>
        </g>
        <g id="Hand" transform="translate(348.821997, 0.000000)" fill-rule="nonzero">
            <path d="M61.7366906,141.486919 L71.5190847,128.120598 L71.6405913,109.711891 L71.7105318,22.9308457 L45.3329984,0 L13.2603159,0 L13.2603159,3.1614953 C13.2672713,8.1068539 15.153416,12.8642349 18.5358225,16.4677888 L6.04646015,32.3953221 L9.84322631,35.6868789 C16.2418103,41.2844595 25.7083097,41.5447344 32.4040105,36.3071723 L36.0808788,39.1985398 L27.4482315,44.7611708 L31.924419,49.9336173 C35.6963092,54.2878556 41.8135054,55.7629122 47.1514496,53.6053539 L43.0749217,64.3304266 L18.7256608,47.8626377 C13.3730578,44.0721716 5.96520274,45.3442845 2.17975355,50.7039816 C-1.60569563,56.0636787 -0.335266388,63.4813516 5.01733669,67.2718178 L25.6097974,82.4890151 L33.0634488,94.0044616 L44.6136112,103.518962 L39.288147,120.777124 L46.7417985,141.436896 L61.7366906,141.486919 Z" id="Path" fill="#649E02"></path>
            <path d="M65.0415819,137.008807 L61.7366906,141.486919 L46.7417985,141.436896 L42.9550238,130.921923 L52.1072286,101.277902 L37.9692704,89.6323937 L30.415704,77.9668762 L8.88404328,62.0893666 C7.17539375,60.826465 6.36947676,58.6746347 6.82743112,56.5981307 C7.28538548,54.5216267 8.92135203,52.9097604 11.0022391,52.4848239 C12.4159565,52.1915005 13.8880013,52.4877447 15.078767,53.3052119 L46.1822751,74.3751774 L53.8157733,54.2656662 L53.8157733,29.9841817 L40.6170152,16.1976611 L32.7337297,16.1976611 C26.8105915,16.1932016 21.6406624,12.1768755 20.1644354,6.43304266 L42.9050664,6.43304266 L65.2160633,25.8222132 L65.0415819,137.008807 Z" id="Path" fill-opacity="0.82145979" fill="#FFFFFF"></path>
            <path d="M47.3412879,32.5654026 L47.3412879,39.8088285 L31.8145126,27.623065 L29.8162146,29.8541202 C25.999097,34.0705122 19.6394178,34.7704459 14.9988351,31.4848915 L23.6614568,20.4796863 C26.4661249,21.9661798 29.5903849,22.7457045 32.7637041,22.7507605 L37.879347,22.7507605 L47.3412879,32.5654026 Z" id="Path" fill-opacity="0.63204764" fill="#FFFFFF"></path>
            <path d="M41.4463089,43.4505509 L45.8825304,46.9321977 C43.1692505,48.7094012 39.5918956,48.3863913 37.2398916,46.1518286 L41.4463089,43.4505509 Z" id="Path" fill-opacity="0.40892701" fill="#FFFFFF"></path>
        </g>
    </g>
</svg>